<svg width="17" height="18" viewBox="0 0 17 18" fill="none" xmlns="http://www.w3.org/2000/svg">
<path d="M1.5 0C1.10218 0 0.720644 0.158035 0.43934 0.43934C0.158035 0.720644 0 1.10218 0 1.5C0 1.89782 0.158035 2.27936 0.43934 2.56066C0.720644 2.84196 1.10218 3 1.5 3H7V16.5C7 16.8978 7.15804 17.2794 7.43934 17.5607C7.72064 17.842 8.10218 18 8.5 18C8.89782 18 9.27936 17.842 9.56066 17.5607C9.84196 17.2794 10 16.8978 10 16.5V3H15.5C15.8978 3 16.2794 2.84196 16.5607 2.56066C16.842 2.27936 17 1.89782 17 1.5C17 1.10218 16.842 0.720644 16.5607 0.43934C16.2794 0.158035 15.8978 0 15.5 0H1.5Z" fill="currentColor"/>
</svg>
