<svg width="24" height="24" viewBox="0 0 24 24" fill="none" xmlns="http://www.w3.org/2000/svg">
<path d="M12 24C10.4241 24 8.86371 23.6896 7.4078 23.0866C5.95189 22.4835 4.62902 21.5996 3.51472 20.4853C1.26428 18.2348 0 15.1826 0 12C0 8.8174 1.26428 5.76516 3.51472 3.51472C5.76516 1.26428 8.8174 0 12 0C18.6 0 24 4.8 24 10.8C24 12.7096 23.2414 14.5409 21.8912 15.8912C20.5409 17.2414 18.7096 18 16.8 18H14.64C14.28 18 14.04 18.24 14.04 18.6C14.04 18.72 14.16 18.84 14.16 18.96C14.64 19.56 14.88 20.28 14.88 21C15 22.68 13.68 24 12 24ZM12 2.4C9.45392 2.4 7.01212 3.41143 5.21178 5.21178C3.41143 7.01212 2.4 9.45392 2.4 12C2.4 14.5461 3.41143 16.9879 5.21178 18.7882C7.01212 20.5886 9.45392 21.6 12 21.6C12.36 21.6 12.6 21.36 12.6 21C12.6 20.76 12.48 20.64 12.48 20.52C12 19.92 11.76 19.32 11.76 18.6C11.76 16.92 13.08 15.6 14.76 15.6H16.8C18.073 15.6 19.2939 15.0943 20.1941 14.1941C21.0943 13.2939 21.6 12.073 21.6 10.8C21.6 6.12 17.28 2.4 12 2.4ZM5.4 9.6C6.36 9.6 7.2 10.44 7.2 11.4C7.2 12.36 6.36 13.2 5.4 13.2C4.44 13.2 3.6 12.36 3.6 11.4C3.6 10.44 4.44 9.6 5.4 9.6ZM9 4.8C9.96 4.8 10.8 5.64 10.8 6.6C10.8 7.56 9.96 8.4 9 8.4C8.04 8.4 7.2 7.56 7.2 6.6C7.2 5.64 8.04 4.8 9 4.8ZM15 4.8C15.96 4.8 16.8 5.64 16.8 6.6C16.8 7.56 15.96 8.4 15 8.4C14.04 8.4 13.2 7.56 13.2 6.6C13.2 5.64 14.04 4.8 15 4.8ZM18.6 9.6C19.56 9.6 20.4 10.44 20.4 11.4C20.4 12.36 19.56 13.2 18.6 13.2C17.64 13.2 16.8 12.36 16.8 11.4C16.8 10.44 17.64 9.6 18.6 9.6Z" fill="currentColor"/>
</svg>
